<?xml version="1.0" encoding="utf-8"?>
<!-- Generator: Adobe Illustrator 16.0.0, SVG Export Plug-In . SVG Version: 6.00 Build 0)  -->
<!DOCTYPE svg PUBLIC "-//W3C//DTD SVG 1.1//EN" "http://www.w3.org/Graphics/SVG/1.1/DTD/svg11.dtd">
<svg version="1.1" id="Layer_1" xmlns="http://www.w3.org/2000/svg" xmlns:xlink="http://www.w3.org/1999/xlink" x="0px" y="0px"
	 width="238.793px" height="189.593px" viewBox="0 0 238.793 189.593" enable-background="new 0 0 238.793 189.593"
	 xml:space="preserve">
<path fill="#001A41" d="M181.931,165.595c1.966,2.043,4.546,3.898,7.724,5.562v6.855H114.92l1.39-6.855
	c4.841-0.304,8.212-0.717,10.104-1.249c1.892-0.528,2.838-1.549,2.838-3.064c0-1.512-0.754-3.48-2.269-5.898L94.06,105.306
	c-2.123-3.631-3.899-6.127-5.336-7.49c-1.441-1.362-3.217-2.19-5.337-2.497v-4.997c6.052-0.452,11.956-2.723,17.712-6.811
	c5.75-4.088,12.791-10.819,21.117-20.208l7.717-8.63c6.667-7.568,9.993-14.38,9.993-20.435c0-4.391-1.745-7.909-5.219-10.559
	c-3.488-2.645-7.953-4.121-13.4-4.428v-6.086h61.304v6.086c-13.164,3.481-25.582,11.808-37.238,24.978l-22.248,25.203l52.678,87.873
	C177.917,160.791,179.965,163.55,181.931,165.595"/>
<path fill="#FFFFFF" d="M95.679,19.008c-5.449,0.307-9.424,0.909-11.92,1.816c-2.499,0.907-4.2,2.65-5.109,5.222
	c-0.909,2.578-1.362,6.737-1.362,12.489v117.161c0,4.243,0.303,7.348,0.907,9.314c0.606,1.966,1.665,3.288,3.18,3.973
	c1.513,0.68,4.008,1.023,7.493,1.023h7.493c5.297,0,11.05-2.65,17.259-7.949c6.201-5.297,11.804-12.296,16.801-21.003
	c4.997-8.704,8.323-17.747,9.993-27.134h5.218c-0.451,5.447-0.68,12.41-0.68,20.888c0,16.351,0.532,32.611,1.589,43.203H15.072
	v-7.325c4.839-0.303,8.363-0.909,10.559-1.818c2.19-0.909,3.666-2.646,4.428-5.222c0.755-2.572,1.134-6.733,1.134-12.487V38.536
	c0-5.752-0.416-9.912-1.249-12.489c-0.832-2.572-2.308-4.315-4.428-5.222c-2.123-0.907-5.604-1.51-10.444-1.816v-5.843h80.607
	V19.008z"/>
<path fill="#001A41" d="M223.434,164.39c0,7.524-6.098,13.622-13.622,13.622s-13.623-6.098-13.623-13.622
	c0-7.525,6.099-13.623,13.623-13.623S223.434,156.865,223.434,164.39"/>
</svg>
