<?xml version="1.0" encoding="utf-8"?>
<!-- Generator: Adobe Illustrator 23.0.3, SVG Export Plug-In . SVG Version: 6.00 Build 0)  -->
<svg version="1.1" id="Layer_1" xmlns="http://www.w3.org/2000/svg" xmlns:xlink="http://www.w3.org/1999/xlink" x="0px" y="0px"
	 viewBox="0 0 238.8 189.6" style="enable-background:new 0 0 238.8 189.6;" xml:space="preserve">
<style type="text/css">
	.st0{opacity:0.5;enable-background:new    ;}
	.st1{fill:#FFFFFF;}
</style>
<path class="st0" d="M181.9,165.6c2,2,4.5,3.9,7.7,5.6v6.9h-43.1c0,0-17.3-9.7-17.3-11.2c0-1.5-0.8-3.5-2.3-5.9l-32.9-55.6
	c-2.1-3.6-3.9-6.1-5.3-7.5c-1.4-1.4-3.2-2.2-5.3-2.5v-5c6.1-0.5,12-2.7,17.7-6.8c5.8-4.1,12.8-10.8,21.1-20.2l7.7-8.6
	c6.7-7.6,10-14.4,10-20.4c0-4.4-1.7-7.9-5.2-10.6c-3.5-2.6-8-4.1-13.4-4.4v-6.1h61.3v6.1c-13.2,3.5-25.6,11.8-37.2,25l-22.2,25.2
	l52.7,87.9C177.9,160.8,180,163.6,181.9,165.6"/>
<path class="st1" d="M95.7,19c-5.4,0.3-9.4,0.9-11.9,1.8c-2.5,0.9-4.2,2.6-5.1,5.2c-0.9,2.6-1.4,6.7-1.4,12.5v117.2
	c0,4.2,0.3,7.3,0.9,9.3c0.6,2,1.7,3.3,3.2,4c1.5,0.7,4,1,7.5,1h7.5c5.3,0,11.1-2.6,17.3-7.9c6.2-5.3,11.8-12.3,16.8-21
	c5-8.7,8.3-17.7,10-27.1h5.2c-0.5,5.4-0.7,12.4-0.7,20.9c0,16.4,0.5,32.6,1.6,43.2H15.1v-7.3c4.8-0.3,8.4-0.9,10.6-1.8
	c2.2-0.9,3.7-2.6,4.4-5.2c0.8-2.6,1.1-6.7,1.1-12.5V38.5c0-5.8-0.4-9.9-1.2-12.5c-0.8-2.6-2.3-4.3-4.4-5.2
	c-2.1-0.9-5.6-1.5-10.4-1.8v-5.8h80.6V19z"/>
<path class="st0" d="M228.8,163.6c0,8-6.4,14.4-14.4,14.4s-14.4-6.4-14.4-14.4c0-8,6.4-14.4,14.4-14.4S228.8,155.7,228.8,163.6"/>
</svg>
